<svg id="Deliver_Man" data-name="Deliver Man" xmlns="http://www.w3.org/2000/svg" xmlns:xlink="http://www.w3.org/1999/xlink" width="230.53" height="199.346" viewBox="0 0 230.53 199.346">
  <defs>
    <clipPath id="clip-path">
      <rect id="Rectangle_15" data-name="Rectangle 15" width="230.53" height="199.346" fill="none"/>
    </clipPath>
    <clipPath id="clip-path-2">
      <path id="Path_22" data-name="Path 22" d="M1793.863,104.8a14.208,14.208,0,0,1,3.706,10.064c-.272,6.138.7,11.227-6.167,11.168a5.908,5.908,0,0,0,3.472,6.113s-5.028,5.546-14.632.1a11.176,11.176,0,0,0,2.293-10.311s-5.969-6.2-1.231-13.3a9.652,9.652,0,0,1,8.36-4.581,11.948,11.948,0,0,1,4.2.755" transform="translate(-1779.476 -104.047)" fill="none"/>
    </clipPath>
  </defs>
  <g id="Group_6" data-name="Group 6" transform="translate(0 0)">
    <g id="Group_5" data-name="Group 5" clip-path="url(#clip-path)">
      <path id="Path_11" data-name="Path 11" d="M188.343,1303.873c-5.568-41.974,30.05-73.335,34.483-77.119,7.236-6.177,31.74-25.31,66.561-23.791,6.291.275,43.5,1.9,60.412,27,9.338,13.86,2.728,20.4,13.1,33.949,14.559,19.027,33.772,14.23,41.7,30.474,6.521,13.36-.391,29.075-3.475,36.087q-.237.539-.483,1.069H198.25a75.988,75.988,0,0,1-9.907-27.667" transform="translate(-187.754 -1132.548)" fill="rgba(248,35,36,0.1)"/>
      <path id="Path_12" data-name="Path 12" d="M7.029,1429.592c-8.935,6.786-6.951,21.92-6.594,24.641.242,1.847,2.8,19.1,18.394,26.723,9.817,4.8,25.916,6.325,33.664-3.124,8.651-10.55,1.284-27.942-6.247-36.788-9.714-11.41-28.839-19.335-39.217-11.453" transform="translate(174.133 -1343.019)" fill="rgba(248,35,36,0.1)"/>
      <path id="Path_13" data-name="Path 13" d="M2441.51,2268.91a32.654,32.654,0,1,1,32.654-32.654,32.691,32.691,0,0,1-32.654,32.654" transform="translate(-2384.473 -2074.763)" fill="#d1d6fe"/>
      <path id="Path_14" data-name="Path 14" d="M427.5,2203.6a32.654,32.654,0,1,1-32.654,32.654A32.691,32.691,0,0,1,427.5,2203.6" transform="translate(-252.71 -2074.763)" fill="#d1d6fe"/>
      <rect id="Rectangle_13" data-name="Rectangle 13" width="59.29" height="54.676" transform="translate(54.311 30.733)" fill="#c00"/>
      <rect id="Rectangle_14" data-name="Rectangle 14" width="29.645" height="54.676" transform="translate(54.311 30.733)" fill="#f82324"/>
      <path id="Path_15" data-name="Path 15" d="M1793.863,104.8s-7.821-3.277-12.559,3.826,1.231,13.3,1.231,13.3a11.057,11.057,0,0,1-2.22,10.238c.085.048.168.093.252.14,2.934.962,9.39,3.924,13.726-.479a5.874,5.874,0,0,1-2.891-5.8c6.864.059,5.895-5.031,6.167-11.168a14.207,14.207,0,0,0-3.706-10.064" transform="translate(-1671.093 -97.964)" fill="#f2b59e"/>
      <path id="Path_16" data-name="Path 16" d="M1891.135,283.192a.936.936,0,1,1-.215-1.306.936.936,0,0,1,.215,1.306" transform="translate(-1771.251 -265.24)" fill="#37295a"/>
      <path id="Path_17" data-name="Path 17" d="M1799.708,277.341a.936.936,0,1,1-.942-.93.936.936,0,0,1,.942.93" transform="translate(-1674.293 -260.251)" fill="#37295a"/>
      <path id="Path_18" data-name="Path 18" d="M1825.463,275.533s2.464,3,2.052,3.626a2.341,2.341,0,0,1-2.648.589l.443-3.851s0-.286.154-.365" transform="translate(-1703.727 -259.423)" fill="#d6998a"/>
      <path id="Path_19" data-name="Path 19" d="M1881.8,236.22a.6.6,0,0,1,.074-.573c.24-.376.768-.4,1.323-.425.583-.026,1.217-.054,1.432.329a.59.59,0,0,1,0,.572c-.132.212-.389.215-1.506.244-.967.025-1.218.034-1.327-.147" transform="translate(-1764.196 -221.457)" fill="#37295a"/>
      <path id="Path_20" data-name="Path 20" d="M1779.319,230.707a.6.6,0,0,1,.074-.573c.24-.376.768-.4,1.323-.425.584-.026,1.217-.054,1.432.329a.59.59,0,0,1,0,.572c-.132.212-.389.215-1.506.244-.967.025-1.218.034-1.327-.147" transform="translate(-1655.724 -216.267)" fill="#37295a"/>
    </g>
  </g>
  <g id="Group_8" data-name="Group 8" transform="translate(108.383 6.083)">
    <g id="Group_7" data-name="Group 7" clip-path="url(#clip-path-2)">
      <path id="Path_21" data-name="Path 21" d="M1859.713,441.57a12.766,12.766,0,0,1-5.25-2.392,8.736,8.736,0,0,0,7.046,6.61Z" transform="translate(-1847.788 -419.584)" fill="#d6998a"/>
    </g>
  </g>
  <g id="Group_10" data-name="Group 10" transform="translate(0 0)">
    <g id="Group_9" data-name="Group 9" clip-path="url(#clip-path)">
      <path id="Path_23" data-name="Path 23" d="M1758.777,50.3c-1.788-.773-3.536-3.614-3.843-6.435.332-2.416,1.669-6.61,6.909-7.664,0,0,6.245.73,6.728,6.967a11.22,11.22,0,0,0,1.884-6.079,4.863,4.863,0,0,0-1.13-2.991h0l-.006-.006a5.654,5.654,0,0,0-1.281-1.118,11.479,11.479,0,0,0-9.761-2.3l.078.086a10.645,10.645,0,0,0-5.775,4.458s-3.008-.217-3.593,5.819c0,0,.046,8.453,4.853,11.957l-.017-2.6s-2.616-2.479-1.587-4.15a1.706,1.706,0,0,1,1.99-.893,32.461,32.461,0,0,0,.078,4.52c.534,3.67,1.851,8.4,7.258,8.164s8.132-.4,6.962-7.637c0,0-7.189,1-9.748-.1" transform="translate(-1642.188 -28.62)" fill="#37295a"/>
      <path id="Path_24" data-name="Path 24" d="M1812.969,405.086l5.5-.036s-.577,2.483-2.734,2.228a3.359,3.359,0,0,1-2.763-2.192" transform="translate(-1693.937 -381.368)" fill="#fff"/>
      <path id="Path_25" data-name="Path 25" d="M1595.683,11.515A11.511,11.511,0,0,1,1607.194,0h0a11.511,11.511,0,0,1,11.511,11.511h.2s8.178,1.01,7.471,1.514c-.593.424-7.808.848-15.067-.074-2.793-.5-6.325-1.441-6.325-1.441Z" transform="translate(-1489.187 -0.004)" fill="#6148ad"/>
      <path id="Path_26" data-name="Path 26" d="M1660.542,2545.263a.885.885,0,0,0,.684-.321l9.284-11.223,7.7,4.04a.887.887,0,1,0,.824-1.571l-8.978-4.708-10.2,12.331a.887.887,0,0,0,.683,1.452" transform="translate(-1546.018 -2383.471)" fill="#6148ad"/>
      <path id="Path_27" data-name="Path 27" d="M1604.078,2188.8l-4.8,13.033,4.5,1.761,6.744-11.782Z" transform="translate(-1473.5 -2060.828)" fill="#f2b59e"/>
      <path id="Path_28" data-name="Path 28" d="M1610,2411.718a3.122,3.122,0,0,1-.479-.43c-3.09-2.878-4.558-7.35-5.023-8.07-1.032.1-4.229-.974-4.647-1.639a1.1,1.1,0,0,0-.153-.185c-.383.19-3.041,1.554-3.673,3.18-.075.193-.171.42-.281.668l-1.034,2.482,15.836,7.771a2.689,2.689,0,0,0-.547-3.777" transform="translate(-1473.788 -2260.991)" fill="#37295a"/>
      <path id="Path_29" data-name="Path 29" d="M1423.1,1728.28s3.805,2.818,2.421,6.047-12.227,34.144-12.227,34.144l-10.151-2.307,4.614-24.454-7.944-2.985Z" transform="translate(-1277.141 -1627.232)" fill="#6148ad"/>
      <path id="Path_30" data-name="Path 30" d="M804.023,1947.6l2.973-.86-14.4-49.808-13.635.147.033,3.095,11.281-.122Z" transform="translate(-622.011 -1786.022)" fill="#7161ce"/>
      <path id="Path_31" data-name="Path 31" d="M1263.726,1692.384h52.6l1.062-.422,46.214-43.58-2.124-2.252-45.767,43.159h-49.19l25.362-40.507h17.83l.633-.135,49.866-22.366-1.267-2.824-49.563,22.231h-18.356l-1.312.726-27.3,43.6Z" transform="translate(-1206.882 -1528.537)" fill="#7161ce"/>
      <rect id="Rectangle_16" data-name="Rectangle 16" width="44.101" height="3.095" transform="translate(107.914 162.532) rotate(-98.625)" fill="#7161ce"/>
      <path id="Path_32" data-name="Path 32" d="M1150.67,1514.76h-5.778l-11.5-37.021h5.778Z" transform="translate(-986.406 -1391.339)" fill="#7161ce"/>
      <path id="Path_33" data-name="Path 33" d="M2132.513,1842.476h16.249a4.766,4.766,0,0,1,0,9.532h-16.249a4.766,4.766,0,0,1,0-9.532" transform="translate(-2047.402 -1734.751)" fill="#37295a"/>
      <path id="Path_34" data-name="Path 34" d="M349.483,2195.737a37.5,37.5,0,1,0-26.516-10.983,37.253,37.253,0,0,0,26.516,10.983m0-70.153a32.654,32.654,0,1,1-32.654,32.654,32.691,32.691,0,0,1,32.654-32.654" transform="translate(-174.692 -1996.746)" fill="#37295a"/>
      <path id="Path_35" data-name="Path 35" d="M552.585,3027.874a.671.671,0,0,0,.14-.015,26.668,26.668,0,0,0,13.014-6.718,19.839,19.839,0,0,0,3.827-4.825.673.673,0,0,0-1.2-.609,18.966,18.966,0,0,1-3.6,4.5,25.34,25.34,0,0,1-12.319,6.333.673.673,0,0,0,.138,1.331" transform="translate(-371.378 -2839.041)" fill="#fff"/>
      <path id="Path_36" data-name="Path 36" d="M635.691,3023.469a.656.656,0,0,0,.14-.015c7.5-1.587,10.277-6.912,10.392-7.138a.673.673,0,0,0-1.2-.61,14.143,14.143,0,0,1-9.471,6.431.673.673,0,0,0,.139,1.332" transform="translate(-452.894 -2839.04)" fill="#fff"/>
      <path id="Path_37" data-name="Path 37" d="M2363.492,2120.74a37.5,37.5,0,1,0,26.516,10.983,37.254,37.254,0,0,0-26.516-10.983m0,70.153a32.654,32.654,0,1,1,32.654-32.654,32.691,32.691,0,0,1-32.654,32.654" transform="translate(-2306.456 -1996.746)" fill="#37295a"/>
      <path id="Path_38" data-name="Path 38" d="M3082.667,2294.469a.669.669,0,0,0-.14.015,26.667,26.667,0,0,0-13.014,6.718,19.84,19.84,0,0,0-3.826,4.825.673.673,0,0,0,1.2.609,18.978,18.978,0,0,1,3.6-4.5,25.341,25.341,0,0,1,12.319-6.333.673.673,0,0,0-.139-1.331" transform="translate(-3032.049 -2160.318)" fill="#fff"/>
      <path id="Path_39" data-name="Path 39" d="M3103.413,2369.815a.686.686,0,0,0-.14.015c-7.5,1.587-10.278,6.912-10.392,7.138a.673.673,0,0,0,1.2.609,14.146,14.146,0,0,1,9.471-6.431.673.673,0,0,0-.139-1.331" transform="translate(-3054.383 -2231.258)" fill="#fff"/>
      <path id="Path_40" data-name="Path 40" d="M1529.486,527.226s14.715,5.8,21.636,20.336l-6.921,9-3.345-3.922s-6.765,22.378-6.3,29.76l-38.8-1.384s.461-27.915,3.691-38.527,6.853-15.537,19.775-16.841c0,0-.4,3.461,4.562,4.845s5.7-3.265,5.7-3.265" transform="translate(-1408.045 -494.913)" fill="#d1d6fe"/>
      <path id="Path_41" data-name="Path 41" d="M1988.446,525.646s7.07,4.4,7.07,17.375-2.076,31.145-28.722,30.972v-7.613a22.138,22.138,0,0,0,21.109-10.728s2.6-19.606-6.748-27.911Z" transform="translate(-1879.979 -494.913)" fill="#c00"/>
      <path id="Path_42" data-name="Path 42" d="M253.884,3398.107H462.046a.355.355,0,0,0,0-.709H253.884a.355.355,0,0,0,0,.709" transform="translate(-246.694 -3198.761)" fill="#6148ad"/>
      <rect id="Rectangle_17" data-name="Rectangle 17" width="10.823" height="4.871" transform="translate(57.151 76.992)" fill="#fff"/>
      <path id="Path_43" data-name="Path 43" d="M1615.012,553.777c2.383,2.047,5.139,5.667,6.385,11.9,2.422,12.112-2.076,23.878-6.4,29.933h-2.768s4.6-14.435,5.564-25.523a24.871,24.871,0,0,0-1.43-8.654c-1.65-3.132-4.9-7.689-9.418-9.475,0,0,4.592-.5,8.07,1.822" transform="translate(-1485.501 -519.642)" fill="#c00"/>
      <path id="Path_44" data-name="Path 44" d="M2278.031,877.8a.284.284,0,0,0,.262-.392,46.788,46.788,0,0,1-2.731-9.617.284.284,0,0,0-.562.076,47.422,47.422,0,0,0,2.769,9.757.284.284,0,0,0,.262.176" transform="translate(-2180.798 -816.824)" fill="#fff"/>
      <path id="Path_45" data-name="Path 45" d="M2100.17,871.964a.284.284,0,0,0,.271-.368l-1.2-3.85a.284.284,0,1,0-.542.169l1.2,3.85a.284.284,0,0,0,.271.2" transform="translate(-1992.629 -816.824)" fill="#fff"/>
      <path id="Path_46" data-name="Path 46" d="M988.174,1303.149h3.909a6.4,6.4,0,0,0,4.555-1.887l6.313-6.313a3.6,3.6,0,0,1,2.5-1.058l8.572-.124-.041-2.826-8.572.124a6.408,6.408,0,0,0-4.461,1.886l-6.313,6.313a3.592,3.592,0,0,1-2.556,1.059h-3.909a3.592,3.592,0,0,1-2.556-1.059l-6.571-6.571a6.4,6.4,0,0,0-4.555-1.887H959.445v2.826h15.047a3.591,3.591,0,0,1,2.556,1.059l6.571,6.571a6.4,6.4,0,0,0,4.555,1.887" transform="translate(-839.593 -1215.336)" fill="#796d90"/>
      <path id="Path_47" data-name="Path 47" d="M1688.318,1285.76H1700.7a1.653,1.653,0,0,1,0,3.307h-12.381a1.653,1.653,0,0,1,0-3.307" transform="translate(-1570.438 -1210.585)" fill="#342953"/>
      <path id="Path_48" data-name="Path 48" d="M749.214,1285.76H761.6a1.653,1.653,0,1,1,0,3.307H749.214a1.653,1.653,0,0,1,0-3.307" transform="translate(-576.427 -1210.585)" fill="#342953"/>
      <path id="Path_49" data-name="Path 49" d="M1767.826,938.243s1.791,16.475,18.131,19.344h0a3.311,3.311,0,0,1,1.54,1.009l.062.116,0,.01h0c.53,1.025.988,2.56-.61,3.119-2.484.869-5.465,1.49-5.589,0s.071-3.28-1.668-3.28-3.046-.013-2.794,2.72c0,0-14.044-.433-19.384-17.2Z" transform="translate(-1660.284 -883.387)" fill="#f2b59e"/>
      <path id="Path_50" data-name="Path 50" d="M1938.993,2657.958a7.743,7.743,0,1,0,7.743-7.743,7.743,7.743,0,0,0-7.743,7.743" transform="translate(-1837.318 -2495.263)" fill="#37295a"/>
      <path id="Path_51" data-name="Path 51" d="M2057.556,2773.432l12.694-15.346a.887.887,0,1,0-1.366-1.13l-11.778,14.238-7.7-4.04a.887.887,0,0,0-.824,1.571Z" transform="translate(-1959.672 -2595.461)" fill="#6148ad"/>
      <path id="Path_52" data-name="Path 52" d="M2172.043,2604.912l-4.8,13.033,4.5,1.761,6.744-11.782Z" transform="translate(-2074.673 -2452.61)" fill="#f2b59e"/>
      <path id="Path_53" data-name="Path 53" d="M2177.962,2827.829a3.121,3.121,0,0,1-.479-.43c-3.09-2.878-4.558-7.35-5.023-8.07-1.032.1-4.229-.975-4.647-1.639a1.1,1.1,0,0,0-.153-.185c-.383.19-3.041,1.554-3.673,3.18-.075.193-.171.42-.281.668l-1.034,2.483,15.836,7.771a2.69,2.69,0,0,0-.547-3.778" transform="translate(-2074.961 -2652.773)" fill="#37295a"/>
      <path id="Path_54" data-name="Path 54" d="M1477.81,1486.858l-.073.025c.453-5.615.968-14.24.968-14.24l38.8,1.384v3.922l17.623,7.069-23.411,10.5s6.439,7.346,5.747,12.19-23.762,42.68-23.762,42.68l-8.767-4.614,12.458-38.989s-10.95-6.767-16.677-11.586a12.087,12.087,0,0,1-2.9-8.343" transform="translate(-1390.996 -1386.542)" fill="#6148ad"/>
      <path id="Path_55" data-name="Path 55" d="M1881.793,1564.465a.284.284,0,0,0,.175-.507c-.082-.064-8.145-6.432-8.108-10.259.038-3.97,0-7.811,0-7.849a.284.284,0,0,0-.568.006c0,.038.038,3.874,0,7.838-.039,4.105,7.984,10.443,8.326,10.711a.282.282,0,0,0,.175.06" transform="translate(-1761.074 -1455.204)" fill="#fff"/>
      <path id="Path_56" data-name="Path 56" d="M814.848,900.5s7.671,10.883,9.747,12.267,28.9,6.8,29.98,8.957.308,3.115-1.653,3.422-4.153.615-4.768-2.115l-5.248.038s-23.1-2.286-24.6-3.67-10.381-9.9-10.381-9.9Z" transform="translate(-671.771 -847.849)" fill="#f2b59e"/>
      <path id="Path_57" data-name="Path 57" d="M2867.129,1891.573h52.724a.355.355,0,1,0,0-.709h-52.724a.355.355,0,1,0,0,.709" transform="translate(-2857.291 -1780.31)" fill="#6148ad"/>
      <path id="Path_58" data-name="Path 58" d="M2961.644,1523.228h22.929a.355.355,0,1,0,0-.709h-22.929a.355.355,0,0,0,0,.709" transform="translate(-2927.536 -1433.502)" fill="#6148ad"/>
      <path id="Path_59" data-name="Path 59" d="M3119.827,777.612h27.37a.355.355,0,1,0,0-.709h-27.37a.355.355,0,1,0,0,.709" transform="translate(-3099.409 -731.48)" fill="#6148ad"/>
      <path id="Path_60" data-name="Path 60" d="M768.228,1872.215l2.977-.848,14.294,50.185h15.9l.929,3.1H783.162Z" transform="translate(-616.711 -1761.953)" fill="#7161ce"/>
    </g>
  </g>
</svg>
