<svg id="Reservations" xmlns="http://www.w3.org/2000/svg" xmlns:xlink="http://www.w3.org/1999/xlink" width="230.53" height="199.346" viewBox="0 0 230.53 199.346">
  <defs>
    <clipPath id="clip-path">
      <rect id="Rectangle_15" data-name="Rectangle 15" width="230.53" height="199.346" fill="none"/>
    </clipPath>
    <clipPath id="clip-path-2">
      <rect id="Rectangle_92" data-name="Rectangle 92" width="205.876" height="165.205" fill="none"/>
    </clipPath>
  </defs>
  <g id="Group_6" data-name="Group 6" transform="translate(0 0)">
    <g id="Group_5" data-name="Group 5" clip-path="url(#clip-path)">
      <path id="Path_11" data-name="Path 11" d="M188.343,1303.873c-5.568-41.974,30.05-73.335,34.483-77.119,7.236-6.177,31.74-25.31,66.561-23.791,6.291.275,43.5,1.9,60.412,27,9.338,13.86,2.728,20.4,13.1,33.949,14.559,19.027,33.772,14.23,41.7,30.474,6.521,13.36-.391,29.075-3.475,36.087q-.237.539-.483,1.069H198.25a75.988,75.988,0,0,1-9.907-27.667" transform="translate(-187.754 -1132.548)" fill="rgba(248,35,36,0.1)"/>
      <path id="Path_12" data-name="Path 12" d="M7.029,1429.592c-8.935,6.786-6.951,21.92-6.594,24.641.242,1.847,2.8,19.1,18.394,26.723,9.817,4.8,25.916,6.325,33.664-3.124,8.651-10.55,1.284-27.942-6.247-36.788-9.714-11.41-28.839-19.335-39.217-11.453" transform="translate(174.133 -1343.019)" fill="rgba(248,35,36,0.1)"/>
      <g id="Group_191" data-name="Group 191" transform="translate(12.327 33.786)">
        <rect id="Rectangle_76" data-name="Rectangle 76" width="150.216" height="96.968" transform="translate(34.596 68.223)" fill="#ffb533"/>
        <rect id="Rectangle_77" data-name="Rectangle 77" width="77.649" height="82.277" transform="translate(99.787 68.224)" fill="#126fc4"/>
        <rect id="Rectangle_78" data-name="Rectangle 78" width="51.273" height="69.626" transform="translate(42.362 92.426)" fill="#4b1e03"/>
        <rect id="Rectangle_79" data-name="Rectangle 79" width="30.813" height="50.826" transform="translate(52.592 101.168)" fill="#7a300b"/>
        <path id="Path_425" data-name="Path 425" d="M241.664,134.016V147.74L190.1,199.3H176.375Z" transform="translate(-64.229 -48.803)" fill="#4db6e0"/>
        <g id="Group_190" data-name="Group 190">
          <g id="Group_189" data-name="Group 189" clip-path="url(#clip-path-2)">
            <path id="Path_426" data-name="Path 426" d="M260.964,211.525a2.886,2.886,0,1,1-2.886-2.885,2.885,2.885,0,0,1,2.886,2.885" transform="translate(-92.931 -75.979)" fill="#4db6e0"/>
            <path id="Path_427" data-name="Path 427" d="M176,150.223a2.885,2.885,0,1,1-2.885-2.885A2.884,2.884,0,0,1,176,150.223" transform="translate(-61.99 -53.655)" fill="#4db6e0"/>
            <path id="Path_428" data-name="Path 428" d="M139.122,198.316a3.138,3.138,0,1,1-3.138-3.139,3.14,3.14,0,0,1,3.138,3.139" transform="translate(-48.377 -71.076)" fill="#ff9f1f"/>
            <path id="Path_429" data-name="Path 429" d="M207.768,93.018V101.7a3.311,3.311,0,0,1-.02.441c-.188,9.171-6.632,14.334-13.745,14.334a13.755,13.755,0,0,1-13.749-13.746,13.735,13.735,0,1,1-27.471,0,13.745,13.745,0,1,1-27.49,0,13.747,13.747,0,0,1-27.494,0,13.745,13.745,0,1,1-27.49,0,13.736,13.736,0,1,1-27.471,0V93.018Z" transform="translate(-15.6 -33.874)" fill="#9ad1ed"/>
            <path id="Path_430" data-name="Path 430" d="M113.533,93.018v9.711a13.745,13.745,0,1,1-27.49,0V93.018Z" transform="translate(-31.334 -33.874)" fill="#db1a00"/>
            <path id="Path_431" data-name="Path 431" d="M200.009,93.018v9.711a13.745,13.745,0,1,1-27.49,0V93.018Z" transform="translate(-62.825 -33.874)" fill="#ff2a00"/>
            <path id="Path_432" data-name="Path 432" d="M286.451,93.018v9.122c-.188,9.171-6.632,14.334-13.745,14.334a13.755,13.755,0,0,1-13.749-13.746V93.018Z" transform="translate(-94.302 -33.874)" fill="#ff2a00"/>
            <path id="Path_433" data-name="Path 433" d="M42.839,75.442S53,44.754,63.857,44.754h61.438V75.442Z" transform="translate(-15.6 -16.298)" fill="#ff2a00"/>
            <path id="Path_434" data-name="Path 434" d="M254.993,75.442s-10.184-30.688-21.037-30.688H172.518l.019,30.688Z" transform="translate(-62.824 -16.298)" fill="#db1a00"/>
            <path id="Union_1" data-name="Union 1" d="M-3092.327-1217.983v-28.457h99.084v28.457Z" transform="translate(3151.451 1246.44)" fill="#4b1e03" stroke="rgba(0,0,0,0)" stroke-miterlimit="10" stroke-width="1"/>
            <rect id="Rectangle_80" data-name="Rectangle 80" width="49.905" height="6.842" transform="translate(108.091 147.013)" fill="#f25115"/>
            <path id="Path_437" data-name="Path 437" d="M278.077,244.268h20.085l-.68,9.89H278.757Z" transform="translate(-101.265 -88.953)" fill="#7a300b"/>
            <path id="Path_438" data-name="Path 438" d="M298.49,226.638l-.452,6.561H277.32l-.451-6.561Z" transform="translate(-100.825 -82.533)" fill="#7a300b"/>
            <rect id="Rectangle_81" data-name="Rectangle 81" width="4.596" height="30.414" transform="translate(184.556 114.791)" fill="#4b1e03"/>
            <path id="Path_439" data-name="Path 439" d="M282.98,157.4v38.048a19.024,19.024,0,0,1,0-38.048" transform="translate(-96.123 -57.318)" fill="#588903"/>
            <path id="Path_440" data-name="Path 440" d="M312.894,176.421a19.021,19.021,0,0,1-19.019,19.024V157.4a19.02,19.02,0,0,1,19.019,19.024" transform="translate(-107.018 -57.318)" fill="#496d03"/>
            <rect id="Rectangle_84" data-name="Rectangle 84" width="6.208" height="11.337" transform="translate(109.538 153.854)" fill="#9b431c"/>
            <rect id="Rectangle_85" data-name="Rectangle 85" width="6.208" height="11.337" transform="translate(150.341 153.854)" fill="#9b431c"/>
            <rect id="Rectangle_86" data-name="Rectangle 86" width="6.208" height="3.491" transform="translate(109.538 153.854)" fill="#4b1e03"/>
            <rect id="Rectangle_87" data-name="Rectangle 87" width="6.208" height="3.491" transform="translate(150.341 153.854)" fill="#4b1e03"/>
            <path id="Path_441" data-name="Path 441" d="M298.3,236.957l-.317,4.649H277.9l-.317-4.649Z" transform="translate(-101.084 -86.291)" fill="#4b1e03"/>
            <rect id="Rectangle_88" data-name="Rectangle 88" width="26.494" height="7.119" transform="translate(173.607 143.883)" fill="#f25115"/>
            <path id="Path_442" data-name="Path 442" d="M3.958,247.583h36.5l-.535,7.769H4.492Z" transform="translate(-1.441 -90.16)" fill="#7a300b"/>
            <path id="Path_443" data-name="Path 443" d="M40.716,233.735l-.355,5.153h-37l-.354-5.153Z" transform="translate(-1.096 -85.117)" fill="#7a300b"/>
            <path id="Path_444" data-name="Path 444" d="M40.564,241.84l-.249,3.652H3.816l-.249-3.652Z" transform="translate(-1.299 -88.069)" fill="#4b1e03"/>
            <rect id="Rectangle_89" data-name="Rectangle 89" width="41.534" height="5.592" transform="translate(0 148.443)" fill="#f25115"/>
            <rect id="Rectangle_90" data-name="Rectangle 90" width="16.349" height="1.172" transform="translate(121.946 98.766) rotate(-24.856)" fill="#4db6e0"/>
            <rect id="Rectangle_91" data-name="Rectangle 91" width="1.172" height="16.349" transform="translate(136.702 92.958) rotate(-65.143)" fill="#4db6e0"/>
            <path id="Path_445" data-name="Path 445" d="M189.627,153.594l32.832,29.078H189.627Z" transform="translate(-69.055 -55.933)" fill="#ffd366"/>
            <path id="Path_446" data-name="Path 446" d="M189.627,153.594h32.832v29.078Z" transform="translate(-69.055 -55.933)" fill="#f7be3e"/>
            <path id="Path_447" data-name="Path 447" d="M201.459,174.358a3.276,3.276,0,0,1-3.374,3.617,3.2,3.2,0,0,1-3.231-3.5,3.325,3.325,0,0,1,3.343-3.6,3.2,3.2,0,0,1,3.262,3.475m-4.963.09c0,1.347.631,2.293,1.67,2.293s1.651-1,1.651-2.334c0-1.233-.591-2.292-1.661-2.292-1.05,0-1.66,1-1.66,2.333" transform="translate(-70.958 -62.229)" fill="#35302e"/>
            <path id="Path_448" data-name="Path 448" d="M207.635,171.122a12.756,12.756,0,0,1,2.1-.142,3.3,3.3,0,0,1,2.1.549,2.011,2.011,0,0,1,.732,1.59,2.193,2.193,0,0,1-.631,1.629,3.184,3.184,0,0,1-2.233.726,4.026,4.026,0,0,1-.53-.031V177.9h-1.539Zm1.539,3.118a2.427,2.427,0,0,0,.52.041c.826,0,1.337-.416,1.337-1.121,0-.632-.439-1.008-1.214-1.008a2.575,2.575,0,0,0-.642.062Z" transform="translate(-75.613 -62.264)" fill="#35302e"/>
            <path id="Path_449" data-name="Path 449" d="M221.826,175.023H219.3v1.631h2.822v1.274h-4.382V171.06h4.24v1.272H219.3v1.427h2.527Z" transform="translate(-79.292 -62.293)" fill="#35302e"/>
            <path id="Path_450" data-name="Path 450" d="M227.09,177.927v-6.868h1.815l1.426,2.517a19.649,19.649,0,0,1,1.12,2.354h.032a25.379,25.379,0,0,1-.133-2.864v-2.007h1.426v6.868h-1.63l-1.468-2.65a25.637,25.637,0,0,1-1.193-2.425l-.031.01c.043.907.062,1.876.062,3v2.068Z" transform="translate(-82.697 -62.293)" fill="#35302e"/>
            <path id="Path_451" data-name="Path 451" d="M216.46,144a2.376,2.376,0,1,1-2.375-2.376A2.376,2.376,0,0,1,216.46,144" transform="translate(-77.096 -51.574)" fill="#35302e"/>
            <path id="Path_452" data-name="Path 452" d="M40.222,222.725H4.829a8.8,8.8,0,0,1,7.938-5.007H32.284a8.8,8.8,0,0,1,7.938,5.007" transform="translate(-1.759 -79.285)" fill="#588903"/>
            <path id="Path_453" data-name="Path 453" d="M40.587,229.379v1.213H3.483v-1.213a8.729,8.729,0,0,1,.856-3.787H39.732a8.738,8.738,0,0,1,.856,3.787" transform="translate(-1.268 -82.152)" fill="#496d03"/>
            <text id="Reservations-2" data-name="Reservations" transform="translate(68.673 18.56)" fill="#fff" font-size="12" font-family="Poppins-SemiBold, Poppins" font-weight="600"><tspan x="0" y="0">Reservations</tspan></text>
          </g>
        </g>
      </g>
    </g>
  </g>
</svg>
