<svg id="Table_Ordering" data-name="Table Ordering" xmlns="http://www.w3.org/2000/svg" xmlns:xlink="http://www.w3.org/1999/xlink" width="230.53" height="199.346" viewBox="0 0 230.53 199.346">
  <defs>
    <clipPath id="clip-path">
      <rect id="Rectangle_15" data-name="Rectangle 15" width="230.53" height="199.346" fill="none"/>
    </clipPath>
    <clipPath id="clip-path-2">
      <rect id="Rectangle_75" data-name="Rectangle 75" width="187.903" height="189.026" fill="none"/>
    </clipPath>
  </defs>
  <g id="Group_6" data-name="Group 6" transform="translate(0 0)">
    <g id="Group_5" data-name="Group 5" clip-path="url(#clip-path)">
      <path id="Path_11" data-name="Path 11" d="M188.343,1303.873c-5.568-41.974,30.05-73.335,34.483-77.119,7.236-6.177,31.74-25.31,66.561-23.791,6.291.275,43.5,1.9,60.412,27,9.338,13.86,2.728,20.4,13.1,33.949,14.559,19.027,33.772,14.23,41.7,30.474,6.521,13.36-.391,29.075-3.475,36.087q-.237.539-.483,1.069H198.25a75.988,75.988,0,0,1-9.907-27.667" transform="translate(-187.754 -1132.548)" fill="rgba(248,35,36,0.1)"/>
      <path id="Path_12" data-name="Path 12" d="M7.029,1429.592c-8.935,6.786-6.951,21.92-6.594,24.641.242,1.847,2.8,19.1,18.394,26.723,9.817,4.8,25.916,6.325,33.664-3.124,8.651-10.55,1.284-27.942-6.247-36.788-9.714-11.41-28.839-19.335-39.217-11.453" transform="translate(174.133 -1343.019)" fill="rgba(248,35,36,0.1)"/>
    </g>
  </g>
  <g id="Group_188" data-name="Group 188" transform="translate(21 10.319)">
    <path id="Path_390" data-name="Path 390" d="M15.864,234.335,15.142,269.8h-3.95l-.722-35.462Z" transform="translate(-3.764 -84.248)" fill="#6d4703"/>
    <path id="Path_391" data-name="Path 391" d="M93.126,234.335,92.4,269.8h-3.95l-.7-35.462Z" transform="translate(-31.548 -84.248)" fill="#6d4703"/>
    <g id="Group_187" data-name="Group 187">
      <g id="Group_186" data-name="Group 186" clip-path="url(#clip-path-2)">
        <path id="Path_392" data-name="Path 392" d="M12.274,179.235,5.719,125a2.87,2.87,0,1,0-5.7.687l6.512,53.883v5.661H61.757v-6Z" transform="translate(0 -44.032)" fill="#6d4703"/>
        <path id="Path_393" data-name="Path 393" d="M43.9,203.417c-11.238,0-20.772,2.055-24.32,4.919H68.225c-3.548-2.864-13.084-4.919-24.322-4.919" transform="translate(-7.041 -73.133)" fill="#ff4c29"/>
        <path id="Path_394" data-name="Path 394" d="M17.365,155.239c1.35,11.157.453,20.867-1.963,24.735l-5.837-48.29c3.269,3.18,6.453,12.4,7.8,23.556" transform="translate(-3.439 -47.343)" fill="#ff4c29"/>
        <path id="Path_395" data-name="Path 395" d="M15.943,220.464l-.181,8.884H10.368l-.181-8.884Z" transform="translate(-3.663 -79.261)" fill="#563704"/>
        <path id="Path_396" data-name="Path 396" d="M93.207,220.464l-.181,8.884H87.648l-.179-8.884Z" transform="translate(-31.447 -79.261)" fill="#563704"/>
        <path id="Path_397" data-name="Path 397" d="M11.663,293.181h3.819l.065-3.478H11.6Z" transform="translate(-4.169 -104.154)" fill="#301d02"/>
        <path id="Path_398" data-name="Path 398" d="M88.85,289.7l.066,3.478h3.82L92.8,289.7Z" transform="translate(-31.943 -104.154)" fill="#301d02"/>
        <path id="Path_399" data-name="Path 399" d="M274.487,234.335l.722,35.462h3.95l.722-35.462Z" transform="translate(-98.684 -84.248)" fill="#6d4703"/>
        <path id="Path_400" data-name="Path 400" d="M197.234,234.335l.72,35.462h3.952l.7-35.462Z" transform="translate(-70.91 -84.248)" fill="#6d4703"/>
        <path id="Path_401" data-name="Path 401" d="M246.438,179.235,252.992,125a2.87,2.87,0,1,1,5.7.687l-6.512,53.883v5.661H196.955v-6Z" transform="translate(-70.809 -44.032)" fill="#6d4703"/>
        <path id="Path_402" data-name="Path 402" d="M222.17,203.417c11.238,0,20.772,2.055,24.32,4.919H197.846c3.55-2.864,13.084-4.919,24.324-4.919" transform="translate(-71.13 -73.133)" fill="#ff4c29"/>
        <path id="Path_403" data-name="Path 403" d="M271.28,155.239c-1.35,11.157-.453,20.867,1.964,24.735l5.835-48.29c-3.267,3.18-6.453,12.4-7.8,23.556" transform="translate(-97.304 -47.343)" fill="#ff4c29"/>
        <path id="Path_404" data-name="Path 404" d="M274.2,220.464l.181,8.884h5.394l.181-8.884Z" transform="translate(-98.582 -79.261)" fill="#563704"/>
        <path id="Path_405" data-name="Path 405" d="M196.952,220.464l.181,8.884h5.375l.181-8.884Z" transform="translate(-70.808 -79.261)" fill="#563704"/>
        <path id="Path_406" data-name="Path 406" d="M279.5,293.181H275.68l-.066-3.478h3.95Z" transform="translate(-99.089 -104.154)" fill="#301d02"/>
        <path id="Path_407" data-name="Path 407" d="M202.311,289.7l-.068,3.478h-3.819l-.066-3.478Z" transform="translate(-71.314 -104.154)" fill="#301d02"/>
        <rect id="Rectangle_72" data-name="Rectangle 72" width="7.726" height="71.707" transform="translate(90.087 115.581)" fill="#563704"/>
        <path id="Path_408" data-name="Path 408" d="M155.948,289.7H109.54a1.742,1.742,0,0,0,0,3.478h46.408a1.742,1.742,0,0,0,0-3.478" transform="translate(-38.794 -104.154)" fill="#563704"/>
        <path id="Path_409" data-name="Path 409" d="M56.625,37.827H16.071l0,0V4.729H56.625Z" transform="translate(-5.777 -1.7)" fill="#7c471d"/>
        <path id="Path_410" data-name="Path 410" d="M55.214,36.676H21.092l0,0V8.826H55.214Z" transform="translate(-7.582 -3.173)" fill="#f7cd48"/>
        <path id="Path_411" data-name="Path 411" d="M21.09,8.825l34.124,27.85-34.124,0Z" transform="translate(-7.582 -3.173)" fill="#f79b21"/>
        <path id="Path_412" data-name="Path 412" d="M213.985,37.827h40.551l0,0V4.729H213.985Z" transform="translate(-76.932 -1.7)" fill="#7c471d"/>
        <path id="Path_413" data-name="Path 413" d="M219.006,36.676h34.12l0,0,0-27.848H219.006Z" transform="translate(-78.737 -3.173)" fill="#f7cd48"/>
        <path id="Path_414" data-name="Path 414" d="M253.13,8.825l-34.125,27.85,34.125,0Z" transform="translate(-78.737 -3.173)" fill="#f79b21"/>
        <path id="Path_415" data-name="Path 415" d="M168.477,131.66v31.249a4.966,4.966,0,0,1-9.922,0,4.979,4.979,0,0,1-9.945,0h-.217a4.956,4.956,0,0,1-9.9,0h-.021a4.956,4.956,0,0,1-9.9,0,4.956,4.956,0,0,1-9.9,0,4.868,4.868,0,0,1-4.949,4.711,4.816,4.816,0,0,1-4.952-4.711h-.021a4.956,4.956,0,0,1-9.9,0,4.956,4.956,0,0,1-9.9,0,4.967,4.967,0,0,1-9.922,0,4.956,4.956,0,0,1-9.9,0V131.66Z" transform="translate(-24.852 -47.335)" fill="#78ce41"/>
        <rect id="Rectangle_73" data-name="Rectangle 73" width="1.812" height="42.532" transform="translate(93.043 26.271)" fill="#61a833"/>
        <path id="Path_416" data-name="Path 416" d="M150.408,10.815c0,3.361-3.8,6.088-8.484,6.088s-8.486-2.728-8.486-6.088,3.8-6.086,8.486-6.086,8.484,2.724,8.484,6.086" transform="translate(-47.973 -1.7)" fill="#f7cd48"/>
        <path id="Path_417" data-name="Path 417" d="M148.992,1.968,143.732,8.4,140.478,0l-3.256,8.4-5.26-6.427a16.666,16.666,0,0,0-2.547,9.058c0,7.834,4.962,14.205,11.064,14.205s11.063-6.371,11.063-14.205a16.667,16.667,0,0,0-2.549-9.058" transform="translate(-46.527)" fill="#ff4c29"/>
        <path id="Path_418" data-name="Path 418" d="M148.494,37.8a4.122,4.122,0,0,1-8.244,0Z" transform="translate(-50.423 -13.59)" fill="#4ea037"/>
        <path id="Path_419" data-name="Path 419" d="M150,62.85c-3.512,3.636-6.762,2.424-6.762,2.424s-1.321-3.208,2.191-6.84,10.531-6.32,10.531-6.32-2.447,7.1-5.961,10.737" transform="translate(-51.411 -18.736)" fill="#61a833"/>
        <path id="Path_420" data-name="Path 420" d="M135.419,58.546c2.771,2.864,5.333,1.908,5.333,1.908s1.043-2.528-1.727-5.4-8.308-4.985-8.308-4.985,1.932,5.6,4.7,8.474" transform="translate(-46.996 -18.002)" fill="#61a833"/>
        <path id="Path_421" data-name="Path 421" d="M145.9,101.984l5.626-36.837h-22.05l5.627,36.837c-1.082,2.183-3.165,5.778.556,5.778h9.685c3.718,0,1.636-3.6.556-5.778" transform="translate(-46.549 -23.422)" fill="#7c471d"/>
        <path id="Path_422" data-name="Path 422" d="M85.074,128.435c8.493,0,15.765-2.543,15.005-5.769H70.069c-.9,3.833,8.427,5.769,15.005,5.769" transform="translate(-25.169 -44.101)" fill="#ff4c29"/>
        <path id="Path_423" data-name="Path 423" d="M191.387,128.435c8.156,0,15.73-2.4,15.007-5.769H176.382c-.984,4.308,10.143,5.769,15.005,5.769" transform="translate(-63.391 -44.101)" fill="#ff4c29"/>
        <rect id="Rectangle_74" data-name="Rectangle 74" width="99.36" height="9.822" transform="translate(44.269 84.34)" fill="#68b238"/>
        <path id="Path_424" data-name="Path 424" d="M148.376,147.022V173.06a4.739,4.739,0,0,1-3.99-4.623,4.788,4.788,0,0,1-3.73,4.557V147.022Z" transform="translate(-50.569 -52.858)" fill="#68b238"/>
      </g>
    </g>
  </g>
</svg>
